<?xml version="1.0" standalone="no"?>
<!DOCTYPE svg PUBLIC "-//W3C//DTD SVG 20010904//EN"
 "http://www.w3.org/TR/2001/REC-SVG-20010904/DTD/svg10.dtd">
<svg version="1.0" xmlns="http://www.w3.org/2000/svg"
 width="716.000000pt" height="716.000000pt" viewBox="0 0 716.000000 716.000000"
 preserveAspectRatio="xMidYMid meet">
<metadata>
Created by potrace 1.11, written by Peter Selinger 2001-2013
</metadata>
<g transform="translate(0.000000,716.000000) scale(0.100000,-0.100000)"
fill="#000000" stroke="none">
<path d="M4480 6972 c-75 -4 -191 -33 -260 -64 -120 -54 -167 -93 -382 -319
-63 -67 -481 -500 -554 -574 -63 -65 -91 -83 -151 -99 -63 -17 -126 -10 -190
19 -48 21 -53 27 -53 55 0 46 45 171 101 282 l49 97 -48 49 c-58 59 -118 82
-216 82 l-71 0 -59 -111 c-56 -104 -93 -149 -121 -149 -7 0 -98 68 -203 150
-105 83 -195 150 -200 150 -6 0 -39 -9 -75 -20 -159 -49 -274 -200 -282 -370
l-3 -65 215 -170 c227 -180 314 -263 363 -348 80 -138 83 -293 8 -440 -12 -24
-439 -459 -1093 -1113 -590 -590 -1089 -1093 -1109 -1117 -44 -53 -100 -171
-123 -257 -24 -90 -24 -315 0 -427 67 -314 240 -618 501 -878 494 -492 1131
-659 1527 -400 55 36 210 184 611 583 l537 535 63 -41 c175 -113 387 -190 628
-228 78 -12 312 -6 415 11 250 40 494 145 685 294 l65 50 28 -28 c28 -27 28
-30 14 -57 -24 -47 -30 -101 -17 -148 9 -35 58 -95 242 -302 236 -265 355
-399 373 -418 6 -6 136 -153 290 -326 154 -173 282 -317 285 -320 3 -3 54 -60
115 -128 159 -179 228 -218 385 -216 69 1 96 6 144 28 118 53 190 135 228 259
32 108 18 213 -44 317 -33 55 -94 111 -623 578 -115 102 -228 201 -250 221
-22 20 -96 86 -165 146 -69 60 -127 112 -130 115 -4 4 -116 104 -209 185 -18
17 -39 35 -45 40 -127 119 -200 174 -241 183 -47 10 -121 0 -139 -19 -15 -14
-21 -12 -55 20 l-30 28 54 70 c249 321 355 745 290 1162 -16 109 -83 322 -124
398 -49 91 -115 205 -122 209 -5 3 -9 9 -9 14 0 4 155 164 345 354 239 239
362 370 398 424 217 319 138 836 -197 1292 -223 304 -564 564 -889 679 -149
52 -338 82 -477 73z m740 -3991 c0 -6 -5 -13 -10 -16 -6 -4 -8 -11 -5 -16 4
-5 1 -9 -4 -9 -6 0 -10 -3 -9 -7 3 -13 -13 -76 -25 -98 -6 -11 -11 -23 -12
-27 0 -15 -13 -18 -19 -3 -3 9 1 18 10 22 9 3 13 12 9 21 -3 8 0 20 7 25 9 6
8 7 -5 3 -12 -4 -17 -2 -14 6 2 7 11 12 21 10 9 -2 16 1 16 6 0 4 -11 8 -24 8
-14 0 -22 -4 -19 -10 3 -5 1 -6 -5 -2 -8 5 -10 2 -6 -8 3 -9 1 -16 -6 -16 -6
0 -8 -5 -4 -11 5 -8 9 -8 14 1 5 8 9 6 14 -6 4 -10 4 -15 0 -11 -4 4 -13 2
-21 -4 -10 -9 -13 -8 -13 4 0 9 -5 19 -12 23 -8 5 -9 2 -5 -9 10 -26 -2 -50
-19 -36 -7 6 -19 7 -26 3 -7 -4 9 15 36 44 27 28 54 50 60 49 6 -1 10 4 9 11
-2 6 3 12 11 12 8 0 18 5 22 12 5 7 3 8 -6 3 -9 -5 -11 -4 -6 3 4 7 14 12 22
12 8 0 12 5 9 10 -3 6 -1 10 4 10 6 0 11 -4 11 -9z m-87 -152 c-8 -8 -9 -19
-2 -38 7 -17 7 -27 0 -29 -6 -2 -9 -8 -5 -13 3 -5 0 -9 -6 -9 -6 0 -8 -5 -4
-12 5 -7 3 -8 -5 -4 -8 6 -11 2 -9 -10 2 -13 -4 -19 -24 -20 -24 -3 -26 -1
-16 16 7 10 15 17 19 14 11 -7 31 24 23 37 -5 8 -3 9 6 4 9 -6 11 -4 5 5 -6 9
-4 11 5 5 9 -6 11 -4 5 4 -5 9 -10 10 -18 2 -16 -16 -31 -13 -18 3 10 12 9 14
-6 11 -10 -1 -17 -8 -15 -14 3 -14 -4 -14 -30 0 -11 6 -22 8 -25 5 -3 -3 4 -9
17 -14 20 -7 21 -10 7 -15 -10 -4 -17 -1 -17 6 0 8 -3 8 -9 -2 -5 -7 -14 -10
-21 -6 -8 5 -5 14 10 30 21 22 64 38 75 27 13 -13 36 -10 31 4 -3 8 -2 12 3 9
5 -3 12 -1 16 5 3 5 9 10 13 10 3 0 1 -5 -5 -11z m-42 -74 c5 4 6 -1 3 -9 -3
-9 -10 -14 -15 -11 -4 3 -13 -4 -19 -15 -6 -11 -15 -18 -21 -15 -5 4 -9 2 -9
-4 0 -5 -8 -8 -17 -6 -10 2 -20 4 -23 4 -3 1 1 5 9 10 8 5 22 8 32 6 10 -2 20
3 23 11 4 12 2 12 -14 4 -16 -8 -18 -8 -14 5 3 8 10 12 15 9 5 -3 9 0 9 6 0 6
5 8 10 5 6 -3 10 0 11 7 0 10 2 10 6 0 2 -6 9 -10 14 -7z m-75 -20 c-2 -5 -8
-9 -14 -8 -14 3 -24 -25 -11 -32 11 -7 2 -25 -12 -25 -6 0 -8 4 -4 9 3 5 0 13
-6 17 -8 4 -7 9 2 15 12 7 12 10 0 21 -11 10 -12 10 -7 0 4 -7 1 -15 -9 -18
-9 -4 -14 -12 -11 -19 5 -15 -21 -28 -36 -18 -6 3 -8 1 -4 -5 3 -5 0 -12 -6
-15 -10 -3 -8 -9 5 -24 16 -18 16 -21 3 -26 -9 -4 -15 -1 -13 5 1 6 -5 13 -13
15 -10 3 -11 2 -3 -4 8 -6 9 -14 3 -23 -8 -13 -10 -12 -10 2 0 9 -5 20 -12 24
-8 5 -9 2 -5 -9 4 -10 10 -23 13 -31 4 -10 0 -14 -13 -12 -33 5 -26 39 16 79
23 22 46 35 52 31 7 -4 10 -1 7 7 -8 23 32 58 63 56 16 -1 27 -6 25 -12z m-51
-57 c0 -19 22 -20 39 -3 9 9 16 12 16 6 0 -6 5 -11 11 -11 5 0 7 5 4 10 -3 6
-2 10 3 10 6 0 13 -7 16 -16 3 -8 2 -13 -3 -10 -5 3 -14 -1 -21 -9 -7 -8 -9
-15 -4 -15 11 0 -18 -20 -28 -20 -12 0 -5 24 12 38 13 11 11 11 -8 2 -12 -6
-20 -16 -16 -22 4 -6 1 -9 -7 -6 -8 3 -14 10 -14 16 0 20 -11 21 -12 2 -1 -11
4 -20 10 -20 7 -1 1 -7 -12 -14 -25 -14 -13 -33 14 -22 9 3 12 0 8 -9 -3 -8
-9 -13 -14 -10 -4 3 -6 -2 -5 -12 3 -13 -3 -18 -18 -19 -14 -1 -23 4 -23 13 0
7 6 12 12 9 6 -2 12 1 12 8 0 6 -8 12 -18 12 -11 0 -16 -7 -13 -19 2 -14 -1
-17 -16 -12 -11 4 -20 3 -20 -2 -1 -17 -29 -45 -40 -38 -7 4 -4 12 8 23 10 9
11 13 3 7 -11 -8 -13 -7 -7 3 7 12 4 12 -15 1 -13 -7 -31 -12 -39 -11 -13 3
-13 2 0 -8 12 -9 10 -10 -10 -5 -19 5 -22 4 -10 -4 13 -10 13 -11 0 -11 -12 0
-12 -2 -2 -9 11 -7 10 -9 -3 -14 -9 -4 -13 -3 -10 3 3 6 1 10 -4 10 -15 0 -14
-11 4 -30 14 -16 14 -18 1 -23 -9 -4 -15 -1 -13 5 1 6 -5 13 -13 15 -10 3 -11
2 -3 -4 8 -6 9 -14 3 -23 -8 -13 -10 -12 -10 2 0 9 -5 20 -12 24 -8 5 -9 2 -5
-9 4 -10 10 -23 13 -31 4 -10 0 -14 -13 -12 -36 5 -25 40 31 93 29 28 57 49
60 46 3 -4 14 2 25 11 11 10 22 13 25 8 3 -6 14 -9 24 -7 9 2 21 4 25 4 5 1 5
6 2 11 -6 10 7 14 32 11 14 -2 11 22 -6 42 -10 13 -8 18 19 32 19 10 28 20 24
28 -4 7 -3 8 2 4 5 -5 9 -14 9 -19z m110 -20 c-4 -14 -18 -38 -33 -54 -15 -16
-26 -32 -25 -36 2 -4 -6 -12 -17 -18 -12 -6 -18 -16 -14 -23 4 -7 3 -9 -1 -4
-5 4 -16 -5 -26 -19 -10 -16 -19 -22 -24 -15 -3 6 -11 8 -17 5 -7 -5 -9 -1 -5
9 3 9 1 19 -5 23 -6 4 -8 3 -5 -3 3 -5 0 -10 -8 -10 -8 0 -15 5 -15 11 -1 6
-8 -2 -16 -17 -12 -22 -18 -26 -28 -17 -15 12 -46 3 -46 -13 0 -7 4 -7 12 1
19 19 29 14 16 -7 -7 -11 -14 -19 -17 -19 -20 2 -31 -4 -28 -14 1 -7 -6 -12
-15 -12 -11 1 -15 -5 -13 -18 3 -15 0 -18 -14 -13 -17 5 -37 -17 -33 -37 2
-10 -22 -11 -31 -2 -3 4 2 14 11 23 10 9 11 12 3 6 -11 -8 -13 -7 -7 3 7 11 4
12 -12 3 -11 -6 -27 -8 -36 -5 -11 4 -14 0 -11 -16 4 -19 1 -21 -18 -17 -19 5
-20 4 -7 -6 17 -13 20 -31 8 -43 -5 -4 -8 0 -8 9 0 10 -4 17 -9 17 -5 0 -8
-14 -6 -31 4 -26 2 -29 -10 -19 -8 7 -13 16 -10 20 3 5 0 12 -6 16 -7 4 -9 3
-5 -4 3 -6 2 -14 -4 -17 -8 -5 -7 -11 1 -21 10 -13 7 -14 -22 -9 -31 5 -32 4
-16 -9 12 -9 14 -16 8 -21 -6 -3 -11 -1 -11 6 0 7 -3 9 -6 6 -4 -4 -1 -13 6
-22 13 -16 10 -18 -14 -9 -9 3 -13 10 -10 15 3 5 -2 6 -10 3 -9 -3 -14 -11
-13 -17 1 -7 -4 -11 -10 -9 -7 1 -13 -2 -13 -8 0 -5 6 -10 13 -10 8 0 7 -3 -3
-9 -8 -6 -17 -8 -21 -5 -4 2 -10 0 -14 -5 -3 -6 4 -8 16 -6 25 5 34 12 34 28
0 7 9 13 20 15 16 3 17 1 5 -7 -20 -14 -7 -14 25 1 23 10 29 20 26 41 0 4 3 7
9 7 5 0 10 -4 10 -9 0 -5 7 -11 14 -14 10 -4 13 -1 9 9 -3 7 -10 14 -16 14
-15 0 0 13 18 16 8 1 15 -3 15 -9 0 -7 7 -4 14 6 10 12 16 15 21 7 4 -6 13 -9
21 -6 34 13 10 -13 -34 -37 -39 -21 -51 -24 -62 -14 -8 7 -11 8 -7 1 10 -17
-17 -36 -38 -27 -13 4 -16 3 -11 -5 5 -8 2 -10 -8 -6 -10 4 -16 1 -16 -7 0 -7
-3 -10 -6 -7 -3 4 -21 0 -40 -8 -19 -8 -34 -11 -34 -7 0 4 -5 2 -12 -5 -7 -7
-16 -12 -20 -12 -4 0 18 27 49 60 32 33 64 60 72 60 8 0 11 3 7 7 -8 9 64 83
82 83 7 0 11 4 8 8 -3 5 15 28 39 51 25 24 42 35 38 25 -4 -11 -3 -15 5 -10 6
3 13 2 16 -3 4 -5 14 -8 24 -6 9 2 21 4 25 4 5 1 5 6 2 11 -6 10 7 14 32 11
13 -2 12 16 -2 39 -7 13 -6 13 7 2 13 -10 15 -9 13 10 -2 14 6 30 21 41 17 12
22 14 18 4 -11 -29 29 -29 54 0 13 15 21 23 18 17 -3 -7 12 -11 40 -11 35 -1
44 2 40 13 -3 8 0 17 7 20 7 2 13 14 14 25 2 16 -2 19 -20 14 -17 -5 -18 -4
-8 4 8 5 29 8 47 6 27 -4 31 -2 30 18 -1 13 5 22 14 22 8 0 16 6 16 13 3 22 4
25 9 20 4 -3 3 -17 0 -30z m-265 -79 c-7 -11 -14 -18 -17 -15 -3 3 0 12 7 21
18 21 23 19 10 -6z m84 -81 c-5 -7 10 -12 29 -9 4 0 7 -6 7 -15 0 -14 -3 -14
-15 -4 -8 7 -15 9 -15 5 0 -4 -6 -2 -14 4 -11 9 -16 9 -22 0 -4 -8 -3 -9 4 -5
8 5 10 2 6 -8 -3 -9 -10 -14 -14 -11 -7 5 -31 -23 -55 -63 -6 -11 -3 -12 14
-2 12 6 19 15 16 19 -3 5 2 12 11 15 10 4 13 2 8 -7 -5 -8 -2 -8 9 2 9 7 15
16 13 20 -3 4 4 12 15 19 16 10 19 9 19 -4 0 -8 -4 -12 -10 -9 -5 3 -10 -1
-10 -10 0 -8 -11 -20 -25 -27 -13 -6 -22 -15 -19 -19 2 -4 -8 -16 -23 -26 -15
-10 -31 -22 -35 -28 -4 -5 -8 -6 -8 -1 0 5 -8 0 -17 -11 -20 -22 -64 -48 -75
-45 -5 1 -8 -3 -8 -9 0 -5 -4 -7 -10 -4 -5 3 -10 11 -10 16 0 6 5 7 12 3 7 -4
8 -3 4 5 -4 6 -12 9 -17 6 -5 -4 -9 -2 -9 4 0 20 19 21 33 0 10 -13 17 -17 22
-9 7 12 -12 41 -25 37 -5 -1 -15 7 -23 17 -11 15 -16 16 -22 6 -5 -9 -4 -11 3
-6 7 4 12 2 12 -4 0 -17 -23 -6 -26 12 -1 9 7 18 17 21 10 3 17 1 14 -4 -8
-11 56 -50 68 -42 6 4 8 -1 3 -12 -5 -15 -4 -16 9 -5 11 9 13 15 5 20 -7 4
-11 10 -11 14 1 3 -2 5 -6 4 -5 -2 -6 -7 -5 -13 2 -5 0 -6 -4 -2 -14 14 -12
36 4 49 12 10 14 10 8 1 -10 -18 9 -16 24 2 7 8 9 15 4 15 -10 0 28 29 40 30
5 0 3 -7 -4 -15 -7 -8 -9 -15 -4 -15 5 -1 -4 -8 -19 -16 -21 -12 -26 -19 -18
-28 6 -7 7 -16 3 -21 -4 -4 3 -2 15 6 12 7 19 17 17 21 -3 4 -1 8 5 8 5 0 8 8
6 18 -1 9 5 26 14 36 9 11 11 16 4 13 -6 -4 -14 -3 -18 2 -3 6 4 8 15 6 15 -3
20 1 18 13 -2 9 3 16 9 15 7 -2 18 5 24 15 7 10 18 19 25 19 7 0 11 -4 8 -9z
m-30 -56 c3 -5 -1 -9 -9 -9 -8 0 -12 4 -9 9 3 4 7 8 9 8 2 0 6 -4 9 -8z m-90
-77 c-4 -8 -11 -12 -16 -9 -6 4 -5 10 3 15 19 12 19 11 13 -6z m-125 -51 c-5
-6 -6 -19 -3 -29 5 -13 3 -16 -7 -13 -8 3 -13 14 -11 24 2 16 0 16 -16 -5 -18
-22 -19 -22 -26 -5 -4 10 -4 15 0 11 9 -9 36 12 29 23 -3 4 6 7 19 6 17 -1 21
-4 15 -12z"/>
<path d="M5165 2920 c-3 -6 1 -7 9 -4 18 7 21 14 7 14 -6 0 -13 -4 -16 -10z"/>
<path d="M4922 2651 c-11 -6 -10 -10 0 -19 11 -8 14 -7 14 9 0 10 0 19 -1 19
0 0 -6 -4 -13 -9z"/>
<path d="M5043 2635 c0 -8 4 -12 9 -9 5 3 6 10 3 15 -9 13 -12 11 -12 -6z"/>
<path d="M5002 2594 c-7 -8 -8 -14 -3 -14 10 0 25 19 20 25 -2 1 -10 -3 -17
-11z"/>
<path d="M4931 2523 c-1 -17 16 -25 25 -12 4 7 3 9 -4 5 -5 -3 -13 0 -15 6 -4
9 -6 10 -6 1z"/>
<path d="M4520 2295 c-7 -9 -11 -17 -9 -20 3 -2 10 5 17 15 14 24 10 26 -8 5z"/>
<path d="M4605 2250 c-4 -6 -11 -8 -16 -5 -5 4 -9 1 -9 -4 0 -6 7 -11 15 -11
8 0 15 5 15 11 0 5 5 7 12 3 7 -4 8 -3 4 4 -9 15 -13 15 -21 2z"/>
<path d="M4520 2200 c-9 -6 -10 -10 -3 -10 6 0 15 5 18 10 8 12 4 12 -15 0z"/>
<path d="M4814 2374 c-18 -14 -18 -15 4 -4 12 6 22 13 22 15 0 8 -5 6 -26 -11z"/>
</g>
</svg>
